<svg width="13" height="12" viewBox="0 0 13 12" fill="none" xmlns="http://www.w3.org/2000/svg">
<path d="M0.720881 9.1108V7.64418L5.04119 0.818182H6.2642V2.90625H5.51847L2.61009 7.51491V7.59446H8.64062V9.1108H0.720881ZM5.57812 11V8.66335L5.59801 8.0071V0.818182H7.33807V11H5.57812ZM11.0705 11.1094C10.7689 11.1094 10.5104 11.0033 10.2949 10.7912C10.0795 10.5791 9.97343 10.3205 9.97674 10.0156C9.97343 9.71733 10.0795 9.46212 10.2949 9.25C10.5104 9.03788 10.7689 8.93182 11.0705 8.93182C11.3622 8.93182 11.6157 9.03788 11.8311 9.25C12.0499 9.46212 12.1609 9.71733 12.1642 10.0156C12.1609 10.2178 12.1079 10.4018 12.0051 10.5675C11.9057 10.7332 11.7731 10.8658 11.6074 10.9652C11.445 11.0613 11.266 11.1094 11.0705 11.1094Z" fill="#2B2F33"/>
</svg>
