<svg width="32" height="32" viewBox="0 0 32 32" fill="none" xmlns="http://www.w3.org/2000/svg">
<path fill-rule="evenodd" clip-rule="evenodd" d="M24.6391 15.5202C25.5191 15.1869 26.2924 14.6402 26.9057 14.0269C28.1457 12.6535 28.9591 11.0135 28.9591 9.09354C28.9591 7.17354 27.4524 5.66687 25.5324 5.66687H24.7857C23.9191 3.89354 22.1057 2.66687 19.9991 2.66687H11.9991C9.8924 2.66687 8.07906 3.89354 7.2124 5.66687H6.46573C4.54573 5.66687 3.03906 7.17354 3.03906 9.09354C3.03906 11.0135 3.8524 12.6535 5.0924 14.0269C5.70573 14.6402 6.47906 15.1869 7.35906 15.5202C8.62628 18.6395 11.5192 20.9126 15 21.281V23.0013H12C10.5333 23.0013 9.33333 24.2013 9.33333 25.668V26.0013H8C7.45333 26.0013 7 26.4546 7 27.0013C7 27.548 7.45333 28.0013 8 28.0013H24C24.5467 28.0013 25 27.548 25 27.0013C25 26.4546 24.5467 26.0013 24 26.0013H22.6667V25.668C22.6667 24.2013 21.4667 23.0013 20 23.0013H17V21.2808C20.4799 20.9117 23.3721 18.639 24.6391 15.5202Z" fill="url(#paint0_linear_591_818)"/>
<path d="M15.9893 16.0001C15.3757 16.0001 14.8303 15.895 14.353 15.6847C13.8786 15.4745 13.5036 15.1819 13.228 14.8069C12.9524 14.4319 12.8061 13.9987 12.7891 13.5072H14.3913C14.4055 13.743 14.4837 13.949 14.6257 14.1251C14.7678 14.2984 14.9567 14.4333 15.1925 14.5299C15.4283 14.6265 15.6925 14.6748 15.9851 14.6748C16.2976 14.6748 16.5746 14.6208 16.8161 14.5129C17.0575 14.4021 17.2464 14.2487 17.3828 14.0526C17.5192 13.8566 17.5859 13.6308 17.5831 13.3751C17.5859 13.1109 17.5178 12.8779 17.3786 12.6762C17.2393 12.4745 17.0376 12.3168 16.7734 12.2032C16.5121 12.0896 16.1967 12.0328 15.8274 12.0328H15.0561V10.814H15.8274C16.1314 10.814 16.397 10.7615 16.6243 10.6563C16.8544 10.5512 17.0348 10.4035 17.1655 10.2132C17.2962 10.02 17.3601 9.79696 17.3572 9.54412C17.3601 9.29696 17.3047 9.08248 17.1911 8.90066C17.0803 8.716 16.9226 8.57253 16.718 8.47026C16.5163 8.36799 16.2791 8.31685 16.0064 8.31685C15.7393 8.31685 15.4922 8.36515 15.2649 8.46174C15.0376 8.55833 14.8544 8.69611 14.7152 8.87509C14.576 9.05123 14.5021 9.26145 14.4936 9.50577H12.9723C12.9837 9.01713 13.1243 8.58816 13.3942 8.21884C13.6669 7.84668 14.0305 7.55691 14.4851 7.34952C14.9396 7.13929 15.4496 7.03418 16.0149 7.03418C16.5973 7.03418 17.103 7.14355 17.532 7.3623C17.9638 7.57821 18.2976 7.86941 18.5334 8.23588C18.7692 8.60236 18.8871 9.00719 18.8871 9.45037C18.8899 9.94185 18.745 10.3538 18.4524 10.6862C18.1626 11.0186 17.782 11.2359 17.3104 11.3382V11.4063C17.924 11.4916 18.3942 11.7188 18.7209 12.0882C19.0504 12.4546 19.2138 12.9106 19.2109 13.4561C19.2109 13.9447 19.0717 14.3822 18.7933 14.7686C18.5178 15.1521 18.1371 15.4532 17.6513 15.672C17.1683 15.8907 16.6143 16.0001 15.9893 16.0001Z" fill="#2B2F33"/>
<defs>
<linearGradient id="paint0_linear_591_818" x1="15.9991" y1="2.66687" x2="15.9991" y2="28.0015" gradientUnits="userSpaceOnUse">
<stop stop-color="#FBBD1E"/>
<stop offset="1" stop-color="#E87D00"/>
</linearGradient>
</defs>
</svg>
