<svg width="32" height="32" viewBox="0 0 32 32" fill="none" xmlns="http://www.w3.org/2000/svg">
<path fill-rule="evenodd" clip-rule="evenodd" d="M24.6391 15.5197C25.5191 15.1863 26.2924 14.6397 26.9057 14.0263C28.1457 12.653 28.9591 11.013 28.9591 9.09299C28.9591 7.17299 27.4524 5.66632 25.5324 5.66632H24.7857C23.9191 3.89299 22.1057 2.66632 19.9991 2.66632H11.9991C9.8924 2.66632 8.07906 3.89299 7.2124 5.66632H6.46573C4.54573 5.66632 3.03906 7.17299 3.03906 9.09299C3.03906 11.013 3.8524 12.653 5.0924 14.0263C5.70573 14.6397 6.47906 15.1863 7.35906 15.5197C8.62628 18.639 11.5192 20.912 15 21.2805V23.0013H12C10.5333 23.0013 9.33333 24.2013 9.33333 25.6679V26.0013H8C7.45333 26.0013 7 26.4546 7 27.0013C7 27.5479 7.45333 28.0013 8 28.0013H24C24.5467 28.0013 25 27.5479 25 27.0013C25 26.4546 24.5467 26.0013 24 26.0013H22.6667V25.6679C22.6667 24.2013 21.4667 23.0013 20 23.0013H17V21.2803C20.4799 20.9112 23.3721 18.6384 24.6391 15.5197Z" fill="url(#paint0_linear_591_811)"/>
<path d="M13.0331 16V14.8579L16.0629 11.8878C16.3527 11.5951 16.5941 11.3352 16.7873 11.1079C16.9805 10.8807 17.1254 10.6605 17.222 10.4474C17.3186 10.2343 17.3669 10.0071 17.3669 9.7656C17.3669 9.49003 17.3044 9.25423 17.1794 9.05821C17.0544 8.85935 16.8825 8.70594 16.6638 8.59798C16.445 8.49003 16.1964 8.43605 15.918 8.43605C15.6311 8.43605 15.3797 8.49571 15.1638 8.61503C14.9478 8.73151 14.7802 8.8977 14.6609 9.11361C14.5444 9.32952 14.4862 9.58662 14.4862 9.88492H12.9819C12.9819 9.33094 13.1084 8.8494 13.3612 8.44031C13.614 8.03122 13.962 7.71446 14.4052 7.49003C14.8513 7.2656 15.3626 7.15338 15.9393 7.15338C16.5245 7.15338 17.0388 7.26276 17.4819 7.48151C17.9251 7.70026 18.2689 7.99997 18.5132 8.38065C18.7603 8.76134 18.8839 9.19599 18.8839 9.68463C18.8839 10.0113 18.8214 10.3324 18.6964 10.6477C18.5714 10.963 18.3513 11.3125 18.0359 11.696C17.7234 12.0795 17.2845 12.544 16.7191 13.0895L15.2149 14.6193V14.6789H19.016V16H13.0331Z" fill="#2B2F33"/>
<defs>
<linearGradient id="paint0_linear_591_811" x1="15.9991" y1="2.66632" x2="15.9991" y2="28.0013" gradientUnits="userSpaceOnUse">
<stop stop-color="#E0E0E0"/>
<stop offset="1" stop-color="#C7C7C7"/>
</linearGradient>
</defs>
</svg>
