<svg width="32" height="32" viewBox="0 0 32 32" fill="none" xmlns="http://www.w3.org/2000/svg">
<path fill-rule="evenodd" clip-rule="evenodd" d="M24.6391 15.5197C25.5191 15.1863 26.2924 14.6397 26.9057 14.0263C28.1457 12.653 28.9591 11.013 28.9591 9.09299C28.9591 7.17299 27.4524 5.66632 25.5324 5.66632H24.7857C23.9191 3.89299 22.1057 2.66632 19.9991 2.66632H11.9991C9.8924 2.66632 8.07906 3.89299 7.2124 5.66632H6.46573C4.54573 5.66632 3.03906 7.17299 3.03906 9.09299C3.03906 11.013 3.8524 12.653 5.0924 14.0263C5.70573 14.6397 6.47906 15.1863 7.35906 15.5197C8.62628 18.639 11.5192 20.912 15 21.2805V23.0007H12C10.5333 23.0007 9.33333 24.2007 9.33333 25.6674V26.0007H8C7.45333 26.0007 7 26.454 7 27.0007C7 27.5474 7.45333 28.0007 8 28.0007H24C24.5467 28.0007 25 27.5474 25 27.0007C25 26.454 24.5467 26.0007 24 26.0007H22.6667V25.6674C22.6667 24.2007 21.4667 23.0007 20 23.0007H17V21.2803C20.4799 20.9112 23.3721 18.6384 24.6391 15.5197Z" fill="url(#paint0_linear_591_804)"/>
<path d="M16.7944 7.27271V16H15.2134V8.81106H15.1623L13.1211 10.115V8.66617L15.2901 7.27271H16.7944Z" fill="#2B2F33"/>
<defs>
<linearGradient id="paint0_linear_591_804" x1="15.9991" y1="2.66632" x2="15.9991" y2="28.0009" gradientUnits="userSpaceOnUse">
<stop stop-color="#FFEC1A"/>
<stop offset="1" stop-color="#FFD500"/>
</linearGradient>
</defs>
</svg>
