<svg width="44" height="44" viewBox="0 0 44 44" fill="none" xmlns="http://www.w3.org/2000/svg">
<g filter="url(#filter0_ii_1140_1900)">
<rect width="44" height="44" rx="8" fill="#208CC1"/>
<path d="M31.7906 11.5H21.2469C20.0287 11.5 19.0375 12.4911 19.0375 13.7094V20.4731L17.0798 19.4995C17.0137 19.4666 16.9465 19.4354 16.8787 19.4059C17.4535 18.8059 17.8078 17.9929 17.8078 17.0984C17.8078 15.2573 16.31 13.7593 14.4689 13.7593C12.6276 13.7593 11.1298 15.2573 11.1298 17.0984C11.1298 18.0989 11.5727 18.9976 12.2722 19.6101C10.984 20.3348 10 21.7486 10 23.5V25.7593C10 26.732 10.6315 27.5598 11.5062 27.8541V31.7844C11.5062 32.1726 11.821 32.4875 12.2094 32.4875H16.728C17.1164 32.4875 17.4312 32.1726 17.4312 31.7844V23.8843L19.6823 25.0097C20.5438 25.4404 21.7123 25.1837 22.2408 24.2031H24.7618L22.0923 31.544C21.9595 31.9089 22.1479 32.3125 22.5129 32.4451C22.93 32.5969 23.301 32.3352 23.4139 32.0247L26.2581 24.2031H26.751L29.6243 32.0269C29.7335 32.3237 30.1017 32.6005 30.5269 32.4443C30.8912 32.3105 31.0784 31.9066 30.9443 31.542L28.249 24.2031H31.7906C32.9852 24.2031 34 23.2394 34 21.9938V13.7094C34 12.4635 32.9852 11.5 31.7906 11.5ZM12.536 17.0984C12.536 16.0326 13.403 15.1656 14.4687 15.1656C15.5345 15.1656 16.4016 16.0326 16.4016 17.0984C16.4016 18.1641 15.5345 19.0311 14.4687 19.0311C13.403 19.0311 12.536 18.1641 12.536 17.0984ZM21.0391 23.4513C21.0372 23.4564 21.0354 23.4617 21.0338 23.467C20.9858 23.6009 20.8774 23.7137 20.7446 23.7682C20.6042 23.8254 20.4462 23.8193 20.3112 23.752C18.9742 23.0831 17.0422 22.1179 17.0422 22.1179C16.5757 21.8846 16.0249 22.2245 16.0249 22.7469V31.0813H12.9125V27.2656C12.9125 26.8774 12.5975 26.5624 12.2094 26.5624C11.7664 26.5624 11.4062 26.2023 11.4062 25.7593V23.5C11.4062 21.7819 12.8052 20.4376 14.4687 20.4376H15.09C15.5613 20.4376 16.032 20.5482 16.4526 20.7582C16.4526 20.7582 19.9402 22.4926 20.8285 22.9349C21.0187 23.0294 21.1092 23.2513 21.0391 23.4513ZM32.5938 21.9938C32.5938 22.2086 32.5104 22.4102 32.3588 22.5618C32.2096 22.7112 32.0025 22.7969 31.7906 22.7969H22.3937C22.3924 22.793 22.3915 22.7892 22.3902 22.7855L24.1352 19.2957C24.3088 18.9484 24.1682 18.5261 23.8208 18.3524C23.4736 18.1788 23.0512 18.3194 22.8774 18.6667L21.3892 21.6431C21.1118 21.5049 20.7893 21.3443 20.4438 21.1725V13.7094C20.4438 13.2666 20.804 12.9062 21.2469 12.9062H31.7906C32.0025 12.9062 32.2096 12.9919 32.359 13.1417C32.5104 13.293 32.5938 13.4946 32.5938 13.7094V21.9938Z" fill="white"/>
<path d="M30.2842 14.5125H22.7529C22.3646 14.5125 22.0498 14.8272 22.0498 15.2156C22.0498 15.6039 22.3646 15.9187 22.7529 15.9187H30.2842C30.6724 15.9187 30.9874 15.6039 30.9874 15.2156C30.9874 14.8272 30.6726 14.5125 30.2842 14.5125Z" fill="white"/>
<path d="M30.2843 17.1484H26.5186C26.1304 17.1484 25.8154 17.4632 25.8154 17.8516C25.8154 18.2399 26.1304 18.5547 26.5186 18.5547H30.2843C30.6725 18.5547 30.9874 18.2399 30.9874 17.8516C30.9874 17.4632 30.6727 17.1484 30.2843 17.1484Z" fill="white"/>
<path d="M30.2843 19.7844H26.5186C26.1304 19.7844 25.8154 20.0992 25.8154 20.4875C25.8154 20.8757 26.1304 21.1907 26.5186 21.1907H30.2843C30.6725 21.1907 30.9874 20.8757 30.9874 20.4875C30.9874 20.0992 30.6727 19.7844 30.2843 19.7844Z" fill="white"/>
</g>
<defs>
<filter id="filter0_ii_1140_1900" x="-1.22222" y="-1.22222" width="46.4444" height="46.4444" filterUnits="userSpaceOnUse" color-interpolation-filters="sRGB">
<feFlood flood-opacity="0" result="BackgroundImageFix"/>
<feBlend mode="normal" in="SourceGraphic" in2="BackgroundImageFix" result="shape"/>
<feColorMatrix in="SourceAlpha" type="matrix" values="0 0 0 0 0 0 0 0 0 0 0 0 0 0 0 0 0 0 127 0" result="hardAlpha"/>
<feOffset dx="1.22222" dy="1.22222"/>
<feGaussianBlur stdDeviation="1.22222"/>
<feComposite in2="hardAlpha" operator="arithmetic" k2="-1" k3="1"/>
<feColorMatrix type="matrix" values="0 0 0 0 1 0 0 0 0 1 0 0 0 0 1 0 0 0 0.33 0"/>
<feBlend mode="normal" in2="shape" result="effect1_innerShadow_1140_1900"/>
<feColorMatrix in="SourceAlpha" type="matrix" values="0 0 0 0 0 0 0 0 0 0 0 0 0 0 0 0 0 0 127 0" result="hardAlpha"/>
<feOffset dx="-1.22222" dy="-1.22222"/>
<feGaussianBlur stdDeviation="1.22222"/>
<feComposite in2="hardAlpha" operator="arithmetic" k2="-1" k3="1"/>
<feColorMatrix type="matrix" values="0 0 0 0 0.151701 0 0 0 0 0.131632 0 0 0 0 0.131632 0 0 0 0.12 0"/>
<feBlend mode="normal" in2="effect1_innerShadow_1140_1900" result="effect2_innerShadow_1140_1900"/>
</filter>
</defs>
</svg>
