<svg width="44" height="44" viewBox="0 0 44 44" fill="none" xmlns="http://www.w3.org/2000/svg">
<g filter="url(#filter0_ii_1140_1947)">
<rect width="44" height="44" rx="8" fill="#706EDE"/>
<g clip-path="url(#clip0_1140_1947)">
<path d="M20.2266 16.7969H16.4766C16.0882 16.7969 15.7734 17.1117 15.7734 17.5C15.7734 17.8883 16.0882 18.2031 16.4766 18.2031H20.2266C20.6149 18.2031 20.9297 17.8883 20.9297 17.5C20.9297 17.1117 20.6149 16.7969 20.2266 16.7969Z" fill="white"/>
<path d="M20.2266 20.5469H16.4766C16.0882 20.5469 15.7734 20.8617 15.7734 21.25C15.7734 21.6383 16.0882 21.9531 16.4766 21.9531H20.2266C20.6149 21.9531 20.9297 21.6383 20.9297 21.25C20.9297 20.8617 20.6149 20.5469 20.2266 20.5469Z" fill="white"/>
<path d="M20.2266 24.2969H16.4766C16.0882 24.2969 15.7734 24.6117 15.7734 25C15.7734 25.3883 16.0882 25.7031 16.4766 25.7031H20.2266C20.6149 25.7031 20.9297 25.3883 20.9297 25C20.9297 24.6117 20.6149 24.2969 20.2266 24.2969Z" fill="white"/>
<path d="M30.3047 22.8873V16.4678C30.3047 15.5411 29.9474 14.6668 29.2985 14.0056L26.4456 11.0553C26.4443 11.0539 26.4428 11.0525 26.4415 11.0511C25.7846 10.3831 24.8706 10 23.9339 10H14.8828C13.7197 10 12.7734 10.9463 12.7734 12.1094V30.3438C12.7734 31.5069 13.7197 32.4531 14.8828 32.4531H25.75C26.752 33.4109 28.1092 34 29.6016 34C32.7032 34 35.2266 31.4977 35.2266 28.4219C35.2266 25.5822 33.0757 23.2315 30.3047 22.8873ZM14.1797 30.3438V12.1094C14.1797 11.7217 14.4951 11.4062 14.8828 11.4062H23.9339C24.4952 11.4062 25.0429 11.6355 25.437 12.0352L28.2894 14.985C28.2907 14.9864 28.2921 14.9878 28.2934 14.9892C28.6836 15.3861 28.8984 15.9112 28.8984 16.4679V22.888C26.1533 23.2347 24.0234 25.5843 24.0234 28.4219C24.0234 29.3703 24.2617 30.2641 24.681 31.0469H14.8828C14.4951 31.0469 14.1797 30.7315 14.1797 30.3438ZM29.6016 32.5938C27.3012 32.5938 25.4297 30.7223 25.4297 28.4219C25.4297 26.1215 27.3012 24.25 29.6016 24.25C31.9278 24.25 33.8203 26.1215 33.8203 28.4219C33.8203 30.7223 31.9278 32.5938 29.6016 32.5938Z" fill="white"/>
<path d="M31.2237 26.7567C30.9255 26.5082 30.4821 26.5484 30.2334 26.8467L29.0467 28.2708L28.7775 27.7324C28.6038 27.3851 28.1815 27.2442 27.8341 27.418C27.4868 27.5916 27.346 28.014 27.5197 28.3613L28.2697 29.8613C28.3758 30.0735 28.5818 30.2179 28.8175 30.2453C28.8447 30.2484 28.8717 30.25 28.8987 30.25C29.1059 30.25 29.3043 30.1583 29.4388 29.997L31.3138 27.747C31.5623 27.4486 31.522 27.0052 31.2237 26.7567V26.7567Z" fill="white"/>
<path d="M23.9766 18.2031H24.7266C25.1149 18.2031 25.4297 17.8883 25.4297 17.5C25.4297 17.1117 25.1149 16.7969 24.7266 16.7969H23.9766C23.5882 16.7969 23.2734 17.1117 23.2734 17.5C23.2734 17.8883 23.5882 18.2031 23.9766 18.2031Z" fill="white"/>
<path d="M25.4297 21.25C25.4297 20.8617 25.1149 20.5469 24.7266 20.5469H23.9766C23.5882 20.5469 23.2734 20.8617 23.2734 21.25C23.2734 21.6383 23.5882 21.9531 23.9766 21.9531H24.7266C25.1149 21.9531 25.4297 21.6383 25.4297 21.25Z" fill="white"/>
</g>
</g>
<defs>
<filter id="filter0_ii_1140_1947" x="-1.22222" y="-1.22222" width="46.4444" height="46.4444" filterUnits="userSpaceOnUse" color-interpolation-filters="sRGB">
<feFlood flood-opacity="0" result="BackgroundImageFix"/>
<feBlend mode="normal" in="SourceGraphic" in2="BackgroundImageFix" result="shape"/>
<feColorMatrix in="SourceAlpha" type="matrix" values="0 0 0 0 0 0 0 0 0 0 0 0 0 0 0 0 0 0 127 0" result="hardAlpha"/>
<feOffset dx="1.22222" dy="1.22222"/>
<feGaussianBlur stdDeviation="1.22222"/>
<feComposite in2="hardAlpha" operator="arithmetic" k2="-1" k3="1"/>
<feColorMatrix type="matrix" values="0 0 0 0 1 0 0 0 0 1 0 0 0 0 1 0 0 0 0.33 0"/>
<feBlend mode="normal" in2="shape" result="effect1_innerShadow_1140_1947"/>
<feColorMatrix in="SourceAlpha" type="matrix" values="0 0 0 0 0 0 0 0 0 0 0 0 0 0 0 0 0 0 127 0" result="hardAlpha"/>
<feOffset dx="-1.22222" dy="-1.22222"/>
<feGaussianBlur stdDeviation="1.22222"/>
<feComposite in2="hardAlpha" operator="arithmetic" k2="-1" k3="1"/>
<feColorMatrix type="matrix" values="0 0 0 0 0.151701 0 0 0 0 0.131632 0 0 0 0 0.131632 0 0 0 0.12 0"/>
<feBlend mode="normal" in2="effect1_innerShadow_1140_1947" result="effect2_innerShadow_1140_1947"/>
</filter>
<clipPath id="clip0_1140_1947">
<rect width="24" height="24" fill="white" transform="translate(12 10)"/>
</clipPath>
</defs>
</svg>
