<svg width="36" height="36" viewBox="0 0 36 36" fill="none" xmlns="http://www.w3.org/2000/svg">
<rect width="36" height="36" rx="6" fill="#D3F1FF"/>
<path d="M11.127 16.045V15.873C11.127 12.077 14.204 9 18 9C21.796 9 24.873 12.077 24.873 15.873V16.045C24.873 19.506 20.491 24.716 18.725 26.676C18.336 27.108 17.664 27.108 17.275 26.676C15.509 24.716 11.127 19.506 11.127 16.045V16.045Z" stroke="#0089CC" stroke-width="1.4468" stroke-linecap="round" stroke-linejoin="round"/>
<path d="M16 15.955C16 17.06 16.895 17.955 18 17.955C19.105 17.955 20 17.06 20 15.955V15.918C20 14.813 19.105 13.918 18 13.918C16.895 13.918 16 14.813 16 15.918" stroke="#0089CC" stroke-width="1.4468" stroke-linecap="round" stroke-linejoin="round"/>
</svg>
