<svg width="44" height="44" viewBox="0 0 44 44" fill="none" xmlns="http://www.w3.org/2000/svg">
<g filter="url(#filter0_ii_1140_1975)">
<rect width="44" height="44" rx="8" fill="#1D93CD"/>
<g clip-path="url(#clip0_1140_1975)">
<path d="M19.8905 14.9686C19.8905 13.3468 18.0963 12.2346 16.5157 13.2456C16.1886 13.4549 16.0931 13.8897 16.3023 14.2168C16.5116 14.5439 16.9464 14.6394 17.2735 14.4302C17.9191 14.0171 18.4842 14.4557 18.4842 14.9686C18.4842 15.317 18.2248 15.6163 17.8808 15.6647C17.4231 15.7292 17.078 16.128 17.078 16.5924V17.0311C17.078 17.4194 17.3928 17.7342 17.7811 17.7342C18.1694 17.7342 18.4842 17.4194 18.4842 17.0311V16.9573C19.3089 16.6642 19.8905 15.8713 19.8905 14.9686Z" fill="white"/>
<path d="M17.7344 19.8904C18.1227 19.8904 18.4375 19.5756 18.4375 19.1873C18.4375 18.7989 18.1227 18.4841 17.7344 18.4841C17.346 18.4841 17.0312 18.7989 17.0312 19.1873C17.0312 19.5756 17.346 19.8904 17.7344 19.8904Z" fill="white"/>
<path d="M31.8906 19.8904H25.5346L25.5185 12.105C25.5161 10.9443 24.5699 10 23.4092 10H12.1094C10.9463 10 10 10.9462 10 12.1093V20.6403C10 21.8034 10.9463 22.7497 12.1094 22.7497H13.5625V24.1559C13.5625 24.734 14.2245 25.0656 14.6875 24.7184L17.3116 22.7504L18.4844 22.7539V30.4839C18.4844 31.6469 19.4306 32.5932 20.5938 32.5932H25.3496L28.0137 33.9252C28.4798 34.1582 29.0312 33.8188 29.0312 33.2963V32.5932H31.8906C33.0537 32.5932 34 31.647 34 30.4839V21.9997C34 20.8366 33.0537 19.8904 31.8906 19.8904ZM17.0781 21.3435C16.926 21.3435 16.778 21.3928 16.6562 21.4841L14.9688 22.7497V22.0465C14.9688 21.6582 14.6539 21.3434 14.2656 21.3434H12.1094C11.7217 21.3434 11.4062 21.028 11.4062 20.6403V12.1093C11.4062 11.7216 11.7217 11.4062 12.1094 11.4062H23.4092C23.7961 11.4062 24.1115 11.721 24.1123 12.1078C24.131 21.187 24.1328 20.6355 24.1249 20.74C24.0844 21.098 23.7788 21.3651 23.4247 21.3626C23.4205 21.3626 17.0823 21.3435 17.0781 21.3435ZM32.5938 30.4839C32.5938 30.8716 32.2783 31.187 31.8906 31.187H28.3281C27.9398 31.187 27.625 31.5018 27.625 31.8901V32.1587L25.8301 31.2612C25.7324 31.2124 25.6248 31.187 25.5156 31.187H20.5938C20.206 31.187 19.8906 30.8716 19.8906 30.4839V22.7582C19.9014 22.7582 23.4162 22.7688 23.427 22.7688C24.3831 22.7688 25.1729 22.1379 25.4383 21.2965H31.8906C32.2783 21.2965 32.5938 21.612 32.5938 21.9997V30.4839Z" fill="white"/>
<path d="M30.4375 24.1089H22C21.6117 24.1089 21.2969 24.4237 21.2969 24.812C21.2969 25.2003 21.6117 25.5151 22 25.5151H30.4375C30.8258 25.5151 31.1406 25.2003 31.1406 24.812C31.1406 24.4237 30.8258 24.1089 30.4375 24.1089Z" fill="white"/>
<path d="M30.4375 26.9214H22C21.6117 26.9214 21.2969 27.2362 21.2969 27.6245C21.2969 28.0128 21.6117 28.3276 22 28.3276H30.4375C30.8258 28.3276 31.1406 28.0128 31.1406 27.6245C31.1406 27.2362 30.8258 26.9214 30.4375 26.9214Z" fill="white"/>
</g>
</g>
<defs>
<filter id="filter0_ii_1140_1975" x="-1.22222" y="-1.22222" width="46.4444" height="46.4444" filterUnits="userSpaceOnUse" color-interpolation-filters="sRGB">
<feFlood flood-opacity="0" result="BackgroundImageFix"/>
<feBlend mode="normal" in="SourceGraphic" in2="BackgroundImageFix" result="shape"/>
<feColorMatrix in="SourceAlpha" type="matrix" values="0 0 0 0 0 0 0 0 0 0 0 0 0 0 0 0 0 0 127 0" result="hardAlpha"/>
<feOffset dx="1.22222" dy="1.22222"/>
<feGaussianBlur stdDeviation="1.22222"/>
<feComposite in2="hardAlpha" operator="arithmetic" k2="-1" k3="1"/>
<feColorMatrix type="matrix" values="0 0 0 0 1 0 0 0 0 1 0 0 0 0 1 0 0 0 0.33 0"/>
<feBlend mode="normal" in2="shape" result="effect1_innerShadow_1140_1975"/>
<feColorMatrix in="SourceAlpha" type="matrix" values="0 0 0 0 0 0 0 0 0 0 0 0 0 0 0 0 0 0 127 0" result="hardAlpha"/>
<feOffset dx="-1.22222" dy="-1.22222"/>
<feGaussianBlur stdDeviation="1.22222"/>
<feComposite in2="hardAlpha" operator="arithmetic" k2="-1" k3="1"/>
<feColorMatrix type="matrix" values="0 0 0 0 0.151701 0 0 0 0 0.131632 0 0 0 0 0.131632 0 0 0 0.12 0"/>
<feBlend mode="normal" in2="effect1_innerShadow_1140_1975" result="effect2_innerShadow_1140_1975"/>
</filter>
<clipPath id="clip0_1140_1975">
<rect width="24" height="24" fill="white" transform="translate(10 10)"/>
</clipPath>
</defs>
</svg>
