<svg width="44" height="44" viewBox="0 0 44 44" fill="none" xmlns="http://www.w3.org/2000/svg">
<g filter="url(#filter0_ii_1140_1869)">
<rect width="44" height="44" rx="8" fill="#706EDE"/>
<path d="M30.4844 22.5697H28.1351C27.8154 22.5697 27.5058 22.6134 27.2112 22.6938C26.63 21.5513 25.4435 20.7664 24.0763 20.7664H19.9237C18.5565 20.7664 17.37 21.5513 16.7888 22.6938C16.4942 22.6134 16.1846 22.5697 15.8649 22.5697H13.5156C11.5771 22.5697 10 24.1468 10 26.0854V29.8409C10 31.004 10.9463 31.9503 12.1094 31.9503H31.8906C33.0537 31.9503 34 31.004 34 29.8409V26.0854C34 24.1468 32.4229 22.5697 30.4844 22.5697ZM16.408 24.2821V30.5441H12.1094C11.7217 30.5441 11.4062 30.2286 11.4062 29.8409V26.0854C11.4062 24.9223 12.3525 23.976 13.5156 23.976H15.8649C16.0558 23.976 16.2406 24.002 16.4166 24.0497C16.4115 24.1266 16.408 24.204 16.408 24.2821ZM26.1857 30.5441H17.8143V24.282C17.8143 23.1189 18.7606 22.1727 19.9237 22.1727H24.0763C25.2394 22.1727 26.1857 23.1189 26.1857 24.282V30.5441ZM32.5938 29.8409C32.5938 30.2286 32.2783 30.5441 31.8906 30.5441H27.592V24.282C27.592 24.2039 27.5885 24.1265 27.5834 24.0497C27.7594 24.002 27.9442 23.976 28.1351 23.976H30.4844C31.6475 23.976 32.5938 24.9222 32.5938 26.0854V29.8409Z" fill="#FAFAFA"/>
<path d="M14.6904 15.9299C12.9678 15.9299 11.5664 17.3314 11.5664 19.054C11.5664 20.7766 12.9678 22.178 14.6904 22.178C16.413 22.178 17.8145 20.7766 17.8145 19.054C17.8145 17.3314 16.413 15.9299 14.6904 15.9299ZM14.6904 20.7717C13.7432 20.7717 12.9726 20.0012 12.9726 19.054C12.9726 18.1068 13.7432 17.3362 14.6904 17.3362C15.6376 17.3362 16.4082 18.1068 16.4082 19.054C16.4082 20.0012 15.6376 20.7717 14.6904 20.7717Z" fill="#FAFAFA"/>
<path d="M21.9998 12.0498C19.6985 12.0498 17.8262 13.9221 17.8262 16.2235C17.8262 18.5248 19.6985 20.3971 21.9998 20.3971C24.3012 20.3971 26.1735 18.5248 26.1735 16.2235C26.1735 13.9221 24.3012 12.0498 21.9998 12.0498ZM21.9998 18.9909C20.4739 18.9909 19.2324 17.7494 19.2324 16.2235C19.2324 14.6975 20.4739 13.4561 21.9998 13.4561C23.5258 13.4561 24.7672 14.6975 24.7672 16.2235C24.7672 17.7494 23.5258 18.9909 21.9998 18.9909Z" fill="#FAFAFA"/>
<path d="M29.3096 15.9299C27.587 15.9299 26.1855 17.3314 26.1855 19.054C26.1856 20.7766 27.587 22.178 29.3096 22.178C31.0322 22.178 32.4336 20.7766 32.4336 19.054C32.4336 17.3314 31.0322 15.9299 29.3096 15.9299ZM29.3096 20.7717C28.3624 20.7717 27.5918 20.0012 27.5918 19.054C27.5918 18.1068 28.3624 17.3362 29.3096 17.3362C30.2568 17.3362 31.0274 18.1068 31.0274 19.054C31.0274 20.0012 30.2568 20.7717 29.3096 20.7717Z" fill="#FAFAFA"/>
</g>
<defs>
<filter id="filter0_ii_1140_1869" x="-1.22222" y="-1.22222" width="46.4444" height="46.4444" filterUnits="userSpaceOnUse" color-interpolation-filters="sRGB">
<feFlood flood-opacity="0" result="BackgroundImageFix"/>
<feBlend mode="normal" in="SourceGraphic" in2="BackgroundImageFix" result="shape"/>
<feColorMatrix in="SourceAlpha" type="matrix" values="0 0 0 0 0 0 0 0 0 0 0 0 0 0 0 0 0 0 127 0" result="hardAlpha"/>
<feOffset dx="1.22222" dy="1.22222"/>
<feGaussianBlur stdDeviation="1.22222"/>
<feComposite in2="hardAlpha" operator="arithmetic" k2="-1" k3="1"/>
<feColorMatrix type="matrix" values="0 0 0 0 1 0 0 0 0 1 0 0 0 0 1 0 0 0 0.33 0"/>
<feBlend mode="normal" in2="shape" result="effect1_innerShadow_1140_1869"/>
<feColorMatrix in="SourceAlpha" type="matrix" values="0 0 0 0 0 0 0 0 0 0 0 0 0 0 0 0 0 0 127 0" result="hardAlpha"/>
<feOffset dx="-1.22222" dy="-1.22222"/>
<feGaussianBlur stdDeviation="1.22222"/>
<feComposite in2="hardAlpha" operator="arithmetic" k2="-1" k3="1"/>
<feColorMatrix type="matrix" values="0 0 0 0 0.151701 0 0 0 0 0.131632 0 0 0 0 0.131632 0 0 0 0.12 0"/>
<feBlend mode="normal" in2="effect1_innerShadow_1140_1869" result="effect2_innerShadow_1140_1869"/>
</filter>
</defs>
</svg>
