<svg width="44" height="44" viewBox="0 0 44 44" fill="none" xmlns="http://www.w3.org/2000/svg">
<g filter="url(#filter0_ii_1140_1924)">
<rect width="44" height="44" rx="8" fill="#EF863D"/>
<path d="M32.0781 22.3194C33.1537 22.2241 34 21.3187 34 20.2188V13.6562C34 12.4931 33.0537 11.5469 31.8906 11.5469H24.9062C23.7431 11.5469 22.7969 12.4931 22.7969 13.6562V16.4219H14.0312C12.8681 16.4219 11.9219 17.3681 11.9219 18.5312V26.9688C11.9219 27.2152 11.9648 27.4518 12.0428 27.6719H11.2656C10.5678 27.6719 10 28.2396 10 28.9375C10 30.876 11.5771 32.4531 13.5156 32.4531H30.4844C32.4229 32.4531 34 30.876 34 28.9375C34 28.2396 33.4322 27.6719 32.7344 27.6719H31.9572C32.0352 27.4518 32.0781 27.2152 32.0781 26.9688V22.3194ZM24.2031 13.6562C24.2031 13.2685 24.5185 12.9531 24.9062 12.9531H31.8906C32.2783 12.9531 32.5938 13.2685 32.5938 13.6562V20.2188C32.5938 20.6065 32.2783 20.9219 31.8906 20.9219H25.375C25.2432 20.9219 25.1141 20.9589 25.0023 21.0287L23.5847 21.9148L24.1735 19.952C24.1931 19.8865 24.2031 19.8184 24.2031 19.75V13.6562ZM30.4844 31.0469H13.5156C12.3998 31.0469 11.4835 30.1759 11.4109 29.0781H32.5891C32.5165 30.1759 31.6002 31.0469 30.4844 31.0469ZM16.7031 22.375C16.7031 21.9356 17.0606 21.5781 17.5 21.5781C17.9394 21.5781 18.2969 21.9356 18.2969 22.375C18.2969 22.8144 17.9394 23.1719 17.5 23.1719C17.0606 23.1719 16.7031 22.8144 16.7031 22.375ZM16.3281 25.375C16.3281 24.9505 16.8757 24.5781 17.5 24.5781C17.8348 24.5781 18.1573 24.6826 18.385 24.8647C18.4922 24.9504 18.6719 25.1307 18.6719 25.375V27.6719H16.3281V25.375ZM20.0781 27.6719V25.375C20.0781 24.767 19.7812 24.1808 19.2634 23.7666C19.2518 23.7573 19.2397 23.7485 19.2279 23.7394C19.525 23.3639 19.7031 22.89 19.7031 22.375C19.7031 21.1602 18.7148 20.1719 17.5 20.1719C16.2852 20.1719 15.2969 21.1602 15.2969 22.375C15.2969 22.8906 15.4754 23.3649 15.7731 23.7407C15.2508 24.1441 14.9219 24.7273 14.9219 25.375V27.6719H14.0312C13.6435 27.6719 13.3281 27.3565 13.3281 26.9688V18.5312C13.3281 18.1435 13.6435 17.8281 14.0312 17.8281H22.7969V19.6468L22.2377 21.5107C22.0679 22.0768 22.2617 22.6743 22.7315 23.0328C22.9846 23.2259 23.2833 23.3235 23.5835 23.3235C23.8405 23.3235 24.0987 23.2518 24.3299 23.1073L25.5767 22.3281H30.6719V26.9688C30.6719 27.3565 30.3565 27.6719 29.9688 27.6719H20.0781Z" fill="white"/>
<path d="M29.125 17.9219H27.625C27.2367 17.9219 26.9219 18.2367 26.9219 18.625C26.9219 19.0133 27.2367 19.3281 27.625 19.3281H29.125C29.5133 19.3281 29.8281 19.0133 29.8281 18.625C29.8281 18.2367 29.5133 17.9219 29.125 17.9219Z" fill="white"/>
<path d="M26.5 15.9531H30.25C30.6383 15.9531 30.9531 15.6383 30.9531 15.25C30.9531 14.8617 30.6383 14.5469 30.25 14.5469H26.5C26.1117 14.5469 25.7969 14.8617 25.7969 15.25C25.7969 15.6383 26.1117 15.9531 26.5 15.9531Z" fill="white"/>
</g>
<defs>
<filter id="filter0_ii_1140_1924" x="-1.22222" y="-1.22222" width="46.4444" height="46.4444" filterUnits="userSpaceOnUse" color-interpolation-filters="sRGB">
<feFlood flood-opacity="0" result="BackgroundImageFix"/>
<feBlend mode="normal" in="SourceGraphic" in2="BackgroundImageFix" result="shape"/>
<feColorMatrix in="SourceAlpha" type="matrix" values="0 0 0 0 0 0 0 0 0 0 0 0 0 0 0 0 0 0 127 0" result="hardAlpha"/>
<feOffset dx="1.22222" dy="1.22222"/>
<feGaussianBlur stdDeviation="1.22222"/>
<feComposite in2="hardAlpha" operator="arithmetic" k2="-1" k3="1"/>
<feColorMatrix type="matrix" values="0 0 0 0 1 0 0 0 0 1 0 0 0 0 1 0 0 0 0.33 0"/>
<feBlend mode="normal" in2="shape" result="effect1_innerShadow_1140_1924"/>
<feColorMatrix in="SourceAlpha" type="matrix" values="0 0 0 0 0 0 0 0 0 0 0 0 0 0 0 0 0 0 127 0" result="hardAlpha"/>
<feOffset dx="-1.22222" dy="-1.22222"/>
<feGaussianBlur stdDeviation="1.22222"/>
<feComposite in2="hardAlpha" operator="arithmetic" k2="-1" k3="1"/>
<feColorMatrix type="matrix" values="0 0 0 0 0.151701 0 0 0 0 0.131632 0 0 0 0 0.131632 0 0 0 0.12 0"/>
<feBlend mode="normal" in2="effect1_innerShadow_1140_1924" result="effect2_innerShadow_1140_1924"/>
</filter>
</defs>
</svg>
