<svg width="36" height="36" viewBox="0 0 36 36" fill="none" xmlns="http://www.w3.org/2000/svg">
<rect width="36" height="36" rx="6" fill="#D3F1FF"/>
<path d="M27 14H9" stroke="#0089CC" stroke-width="1.5" stroke-linecap="round" stroke-linejoin="round"/>
<path d="M23.5 19C24.39 19 25.26 19.2639 26.0001 19.7584C26.7401 20.2529 27.3169 20.9557 27.6575 21.7779C27.9981 22.6002 28.0872 23.505 27.9135 24.3779C27.7399 25.2508 27.3113 26.0526 26.682 26.682C26.0526 27.3113 25.2508 27.7399 24.3779 27.9135C23.505 28.0872 22.6002 27.9981 21.7779 27.6575C20.9557 27.3169 20.2529 26.7401 19.7584 26.0001C19.2639 25.26 19 24.39 19 23.5C19 22.3065 19.4741 21.1619 20.318 20.318C21.1619 19.4741 22.3065 19 23.5 19" stroke="#0089CC" stroke-width="1.5" stroke-linecap="round" stroke-linejoin="round"/>
<path d="M20.673 27H12C11.2044 27 10.4413 26.6839 9.87868 26.1213C9.31607 25.5587 9 24.7956 9 24V12C9 11.2044 9.31607 10.4413 9.87868 9.87868C10.4413 9.31607 11.2044 9 12 9H24C24.7956 9 25.5587 9.31607 26.1213 9.87868C26.6839 10.4413 27 11.2044 27 12V20.673" stroke="#0089CC" stroke-width="1.5" stroke-linecap="round" stroke-linejoin="round"/>
<path d="M23.7217 21.2895V23.681" stroke="#0089CC" stroke-width="1.5" stroke-linecap="round" stroke-linejoin="round"/>
<path d="M21.7744 23.681H23.7223" stroke="#0089CC" stroke-width="1.5" stroke-linecap="round" stroke-linejoin="round"/>
<path d="M12.7992 17.5C12.7992 17.5099 12.7963 17.5196 12.7908 17.5278C12.7853 17.536 12.7775 17.5424 12.7684 17.5462C12.7592 17.55 12.7492 17.551 12.7395 17.549C12.7298 17.5471 12.7209 17.5423 12.7139 17.5354C12.7069 17.5284 12.7021 17.5195 12.7002 17.5098C12.6983 17.5001 12.6992 17.49 12.703 17.4809C12.7068 17.4717 12.7132 17.4639 12.7214 17.4584C12.7297 17.4529 12.7393 17.45 12.7492 17.45" stroke="#0089CC" stroke-width="1.5" stroke-linecap="round" stroke-linejoin="round"/>
<path d="M12.749 17.45C12.7623 17.45 12.775 17.4553 12.7844 17.4646C12.7938 17.474 12.799 17.4867 12.799 17.5" stroke="#0089CC" stroke-width="1.5" stroke-linecap="round" stroke-linejoin="round"/>
<path d="M16.3002 17.5C16.3002 17.5099 16.2973 17.5196 16.2918 17.5278C16.2863 17.536 16.2785 17.5424 16.2693 17.5462C16.2602 17.55 16.2501 17.551 16.2404 17.549C16.2307 17.5471 16.2218 17.5423 16.2148 17.5354C16.2078 17.5284 16.2031 17.5195 16.2012 17.5098C16.1992 17.5001 16.2002 17.49 16.204 17.4809C16.2078 17.4717 16.2142 17.4639 16.2224 17.4584C16.2306 17.4529 16.2403 17.45 16.2502 17.45" stroke="#0089CC" stroke-width="1.5" stroke-linecap="round" stroke-linejoin="round"/>
<path d="M16.25 17.45C16.2633 17.45 16.276 17.4553 16.2854 17.4646C16.2947 17.474 16.3 17.4867 16.3 17.5" stroke="#0089CC" stroke-width="1.5" stroke-linecap="round" stroke-linejoin="round"/>
<path d="M12.7992 20.5C12.7992 20.5099 12.7963 20.5196 12.7908 20.5278C12.7853 20.536 12.7775 20.5424 12.7684 20.5462C12.7592 20.55 12.7492 20.551 12.7395 20.549C12.7298 20.5471 12.7209 20.5423 12.7139 20.5354C12.7069 20.5284 12.7021 20.5195 12.7002 20.5098C12.6983 20.5001 12.6992 20.49 12.703 20.4809C12.7068 20.4717 12.7132 20.4639 12.7214 20.4584C12.7297 20.4529 12.7393 20.45 12.7492 20.45" stroke="#0089CC" stroke-width="1.5" stroke-linecap="round" stroke-linejoin="round"/>
<path d="M12.749 20.45C12.7623 20.45 12.775 20.4553 12.7844 20.4646C12.7938 20.474 12.799 20.4867 12.799 20.5" stroke="#0089CC" stroke-width="1.5" stroke-linecap="round" stroke-linejoin="round"/>
<path d="M16.3002 20.5C16.3002 20.5099 16.2973 20.5196 16.2918 20.5278C16.2863 20.536 16.2785 20.5424 16.2693 20.5462C16.2602 20.55 16.2501 20.551 16.2404 20.549C16.2307 20.5471 16.2218 20.5423 16.2148 20.5354C16.2078 20.5284 16.2031 20.5195 16.2012 20.5098C16.1992 20.5001 16.2002 20.49 16.204 20.4809C16.2078 20.4717 16.2142 20.4639 16.2224 20.4584C16.2306 20.4529 16.2403 20.45 16.2502 20.45" stroke="#0089CC" stroke-width="1.5" stroke-linecap="round" stroke-linejoin="round"/>
<path d="M16.25 20.45C16.2633 20.45 16.276 20.4553 16.2854 20.4646C16.2947 20.474 16.3 20.4867 16.3 20.5" stroke="#0089CC" stroke-width="1.5" stroke-linecap="round" stroke-linejoin="round"/>
<path d="M19.7992 17.5C19.7992 17.5099 19.7963 17.5196 19.7908 17.5278C19.7853 17.536 19.7775 17.5424 19.7684 17.5462C19.7592 17.55 19.7492 17.551 19.7395 17.549C19.7298 17.5471 19.7209 17.5423 19.7139 17.5354C19.7069 17.5284 19.7021 17.5195 19.7002 17.5098C19.6983 17.5001 19.6992 17.49 19.703 17.4809C19.7068 17.4717 19.7132 17.4639 19.7214 17.4584C19.7297 17.4529 19.7393 17.45 19.7492 17.45" stroke="#0089CC" stroke-width="1.5" stroke-linecap="round" stroke-linejoin="round"/>
<path d="M19.749 17.45C19.7623 17.45 19.775 17.4553 19.7844 17.4646C19.7938 17.474 19.799 17.4867 19.799 17.5" stroke="#0089CC" stroke-width="1.5" stroke-linecap="round" stroke-linejoin="round"/>
<path d="M12.7992 23.5C12.7992 23.5099 12.7963 23.5196 12.7908 23.5278C12.7853 23.536 12.7775 23.5424 12.7684 23.5462C12.7592 23.55 12.7492 23.551 12.7395 23.549C12.7298 23.5471 12.7209 23.5423 12.7139 23.5354C12.7069 23.5284 12.7021 23.5195 12.7002 23.5098C12.6983 23.5001 12.6992 23.49 12.703 23.4809C12.7068 23.4717 12.7132 23.4639 12.7214 23.4584C12.7297 23.4529 12.7393 23.45 12.7492 23.45" stroke="#0089CC" stroke-width="1.5" stroke-linecap="round" stroke-linejoin="round"/>
<path d="M12.749 23.45C12.7623 23.45 12.775 23.4553 12.7844 23.4646C12.7938 23.474 12.799 23.4867 12.799 23.5" stroke="#0089CC" stroke-width="1.5" stroke-linecap="round" stroke-linejoin="round"/>
<path d="M16.3002 23.5C16.3002 23.5099 16.2973 23.5196 16.2918 23.5278C16.2863 23.536 16.2785 23.5424 16.2693 23.5462C16.2602 23.55 16.2501 23.551 16.2404 23.549C16.2307 23.5471 16.2218 23.5423 16.2148 23.5354C16.2078 23.5284 16.2031 23.5195 16.2012 23.5098C16.1992 23.5001 16.2002 23.49 16.204 23.4809C16.2078 23.4717 16.2142 23.4639 16.2224 23.4584C16.2306 23.4529 16.2403 23.45 16.2502 23.45" stroke="#0089CC" stroke-width="1.5" stroke-linecap="round" stroke-linejoin="round"/>
<path d="M16.25 23.45C16.2633 23.45 16.276 23.4553 16.2854 23.4646C16.2947 23.474 16.3 23.4867 16.3 23.5" stroke="#0089CC" stroke-width="1.5" stroke-linecap="round" stroke-linejoin="round"/>
</svg>
