<svg width="44" height="44" viewBox="0 0 44 44" fill="none" xmlns="http://www.w3.org/2000/svg">
<g filter="url(#filter0_ii_1140_1999)">
<rect width="44" height="44" rx="8" fill="#EF873E"/>
<path d="M28.7842 12.2277H26.0473C25.9746 11.6014 25.4411 11.1138 24.7956 11.1138H24.0227C23.5932 10.4272 22.8381 10 22.0111 10C21.1846 10 20.4293 10.4272 19.9988 11.1138H19.2265C18.581 11.1138 18.0475 11.6014 17.9748 12.2277H15.2403C13.6431 12.2277 12.3438 13.5272 12.3438 15.1242V31.1036C12.3438 32.7006 13.6431 34 15.2403 34H28.7842C30.3812 34 31.6807 32.7006 31.6807 31.1036V15.1242C31.6807 13.527 30.3814 12.2277 28.7842 12.2277ZM19.3726 12.5201H20.326C20.6719 12.5201 20.9834 12.3146 21.1194 11.9966C21.2729 11.6379 21.623 11.4062 22.0111 11.4062C22.3991 11.4062 22.7487 11.6375 22.9012 11.9953C23.0371 12.3141 23.3487 12.5201 23.6952 12.5201H24.6495V14.4553H19.3726V12.5201ZM30.2745 31.1034C30.2745 31.9252 29.606 32.5937 28.7842 32.5937H15.2403C14.4185 32.5937 13.75 31.9252 13.75 31.1034V15.1242C13.75 14.3024 14.4185 13.6339 15.2403 13.6339H17.9664V14.6016C17.9664 15.2963 18.5316 15.8616 19.2265 15.8616H24.7956C25.4905 15.8616 26.0558 15.2963 26.0558 14.6016V13.6339H28.7842C29.606 13.6339 30.2745 14.3024 30.2745 15.1242V31.1034Z" fill="white"/>
<path d="M20.5537 19.9236H27.9929C28.3813 19.9236 28.696 19.6086 28.696 19.2205C28.696 18.8321 28.3813 18.5173 27.9929 18.5173H20.5537C20.1653 18.5173 19.8506 18.8321 19.8506 19.2205C19.8506 19.6086 20.1653 19.9236 20.5537 19.9236Z" fill="white"/>
<path d="M16.1454 20.5364C16.2908 20.6818 16.4818 20.7543 16.6726 20.7543C16.8634 20.7543 17.0544 20.6818 17.1998 20.5364L18.8497 18.8863C19.1244 18.6118 19.1244 18.1665 18.8497 17.892C18.5752 17.6174 18.1299 17.6174 17.8555 17.892L16.6726 19.0747L16.4562 18.8583C16.1815 18.5838 15.7364 18.5838 15.4617 18.8583C15.1872 19.1329 15.1872 19.5781 15.4617 19.8527L16.1454 20.5364Z" fill="white"/>
<path d="M20.5381 24.9167H27.9775C28.3657 24.9167 28.6806 24.6018 28.6806 24.2136C28.6806 23.8253 28.3657 23.5105 27.9775 23.5105H20.5381C20.1499 23.5105 19.835 23.8253 19.835 24.2136C19.835 24.6018 20.1499 24.9167 20.5381 24.9167Z" fill="white"/>
<path d="M16.1295 25.5296C16.2703 25.6704 16.4574 25.7479 16.6566 25.7479H16.6572C16.8564 25.7477 17.0437 25.67 17.1836 25.5296L18.8337 23.8795C19.1084 23.605 19.1084 23.1597 18.8337 22.8852C18.5593 22.6105 18.114 22.6105 17.8395 22.8852L16.6566 24.0679L16.44 23.8514C16.1655 23.577 15.7204 23.577 15.4457 23.8514C15.1711 24.1261 15.1711 24.5712 15.4457 24.8459L16.1295 25.5296Z" fill="white"/>
<path d="M28.0818 28.4543H20.6426C20.2542 28.4543 19.9395 28.7691 19.9395 29.1575C19.9395 29.5458 20.2542 29.8606 20.6426 29.8606H28.0818C28.4702 29.8606 28.7849 29.5458 28.7849 29.1575C28.7849 28.7691 28.4702 28.4543 28.0818 28.4543Z" fill="white"/>
<path d="M17.944 27.829L16.7611 29.0119L16.5445 28.7955C16.2698 28.5208 15.8249 28.5208 15.5502 28.7955C15.2756 29.0699 15.2756 29.5153 15.5502 29.7899L16.2339 30.4734C16.3793 30.6188 16.5701 30.6915 16.7611 30.6915C16.9519 30.6915 17.1429 30.6188 17.2881 30.4734L18.9382 28.8235C19.2129 28.5488 19.2129 28.1037 18.9382 27.829C18.6638 27.5544 18.2184 27.5544 17.944 27.829Z" fill="white"/>
</g>
<defs>
<filter id="filter0_ii_1140_1999" x="-1.22222" y="-1.22222" width="46.4444" height="46.4444" filterUnits="userSpaceOnUse" color-interpolation-filters="sRGB">
<feFlood flood-opacity="0" result="BackgroundImageFix"/>
<feBlend mode="normal" in="SourceGraphic" in2="BackgroundImageFix" result="shape"/>
<feColorMatrix in="SourceAlpha" type="matrix" values="0 0 0 0 0 0 0 0 0 0 0 0 0 0 0 0 0 0 127 0" result="hardAlpha"/>
<feOffset dx="1.22222" dy="1.22222"/>
<feGaussianBlur stdDeviation="1.22222"/>
<feComposite in2="hardAlpha" operator="arithmetic" k2="-1" k3="1"/>
<feColorMatrix type="matrix" values="0 0 0 0 1 0 0 0 0 1 0 0 0 0 1 0 0 0 0.33 0"/>
<feBlend mode="normal" in2="shape" result="effect1_innerShadow_1140_1999"/>
<feColorMatrix in="SourceAlpha" type="matrix" values="0 0 0 0 0 0 0 0 0 0 0 0 0 0 0 0 0 0 127 0" result="hardAlpha"/>
<feOffset dx="-1.22222" dy="-1.22222"/>
<feGaussianBlur stdDeviation="1.22222"/>
<feComposite in2="hardAlpha" operator="arithmetic" k2="-1" k3="1"/>
<feColorMatrix type="matrix" values="0 0 0 0 0.151701 0 0 0 0 0.131632 0 0 0 0 0.131632 0 0 0 0.12 0"/>
<feBlend mode="normal" in2="effect1_innerShadow_1140_1999" result="effect2_innerShadow_1140_1999"/>
</filter>
</defs>
</svg>
